<svg fill="none" height="2500" width="1893" xmlns="http://www.w3.org/2000/svg" viewBox="-19.688 0 412.32400857100913 518.1399999999999"><g fill="#d1a647"><path d="M22.382 431.23c-1.44-15.22-5.82-18.14-7.24-39.86s19.53-39.17 19.53-39.17-23.88 30.14-5.77 61.62a122.27 122.27 0 0 1 7.46 15.18 56.677 56.677 0 0 1-14 2.24m55-100.7c-5.68-25.21 2.65-43.19 9.06-52.65-.52 11.15.89 24.06 5.5 38.85 2.53 8.34 4.83 16.42 6.73 24.22-8.42-1-17.91-4.74-21.29-10.42zm47.84-35.54c-16.72-52.55-9.36-73.9-9.36-73.9s-19.23 11.82-26.62 39c-11.93 9.49-33.31 35.11-32.78 95.72 0 0 17.36 20.31 48.18 19.76 2.69 36.7-9.31 65.79-50.87 85.71 4.9-8.44 6.84-20.58 3.58-35.34 6.48-9.22 7.82-17.25 7.82-17.25a44.667 44.667 0 0 1-9.55 10.61 104.637 104.637 0 0 0-7.15-17.13c-17.34-33.28-1.45-61.52-1.45-61.52C-19.688 368.9 5.742 437 5.742 437c-9.46 8-4.38 15.2-4.38 15.2 17.27-.87 29.91-5.18 39.13-10.73 6.39 26.76-8 36.75-8 36.75 111.57-27.46 109.43-131.06 92.71-183.22zM89.222 219.81a13.452 13.452 0 0 0 13.204-16.064 13.453 13.453 0 0 0-18.332-9.816 13.454 13.454 0 0 0-8.312 12.42 13.46 13.46 0 0 0 13.44 13.46z"/><path d="M33.082 331.37a12.51 12.51 0 1 0-12.46-12.52 12.483 12.483 0 0 0 7.681 11.56c1.515.631 3.139.957 4.78.96zM14.372 350.06a9.44 9.44 0 1 0-9.45-9.45 9.431 9.431 0 0 0 9.45 9.45zM302.252 393.52s-10-4.7-27.33-4.7h-105c16.34-17.36 54.41-52.57 90.34-48.66 42.6 4.67 42 53.36 42 53.36m52.74-167.74c-31-42.78-73-74.14-89.39-114.38C236.842 40.72 296.762 0 296.762 0s-73 43.12-61.1 136.54a86.189 86.189 0 0 0 5 19.53c9 24.36 28.1 46 48.55 68.37 25.5 28 53.11 57.18 65.82 94.29a164.703 164.703 0 0 1 3.123 67.327A164.714 164.714 0 0 1 334.052 449c7.46-33.26.76-85.27-14-107.59-10-17.74-26.17-31.69-51.79-35.29-25.45-2.94-51.78 18-70.86 38.13 41.84-71.51 34.57-106.85 13.44-175.63-22.75-74.17 22.65-101.09 22.65-101.09s-79.73 44.9-50.53 141c24 78.9 15.79 118.87-5.38 157.88-9.93 11.54-18.37 22.43-18.37 22.43-1.71 2.74-3.49 5.43-5.29 8.21 27.44-70.56 25.21-104.26 5.63-164.17-20.62-63.33 8.7-90.64 8.7-90.64s-60 43.3-32 133.33-7.32 150.59-7.32 150.59h162.62c1.83 0 3.61.14 5.21.2 8.83 1.72 19.73 7.74 18.91 28.91-.68 16.36-13.33 31.3-33.15 44.55a162.826 162.826 0 0 1-41 18.32c85.92-15.46 151.05-90.59 151.05-180.86a183.375 183.375 0 0 0-37.57-111.5z"/><path d="M109.052 439.422c0-.377.146-.739.407-1.005.261-.267.614-.417.983-.417.368 0 .722.15.983.417.26.266.407.628.407 1.005v31.443a4.946 4.946 0 0 0 1.265 3.503 4.72 4.72 0 0 0 3.314 1.562h23.317c.356.06.679.247.912.528.234.281.362.638.362 1.007s-.128.726-.362 1.007a1.511 1.511 0 0 1-.912.528h-23.367c-4.099 0-7.359-3.653-7.359-8.186z" stroke="#d1a647" stroke-width="4"/><path d="M152.527 476.002h15.059c1.27-.045 2.47-.569 3.339-1.459s1.336-2.074 1.3-3.293v-4.881h-19.718a5.014 5.014 0 0 0-3.388 1.518 4.622 4.622 0 0 0-1.303 3.363 4.467 4.467 0 0 0 .312 1.783c.226.568.567 1.088 1.003 1.53s.959.796 1.538 1.043 1.204.381 1.838.396M167.492 453a8.021 8.021 0 0 1 2.964.666 7.762 7.762 0 0 1 2.47 1.709 7.4 7.4 0 0 1 1.594 2.489c.356.922.517 1.903.476 2.886v10.5c0 4.253-3.342 7.75-7.431 7.75h-15.038c-2.044-.141-3.956-1.019-5.353-2.459-1.396-1.44-2.172-3.334-2.172-5.301s.776-3.861 2.172-5.301a8.242 8.242 0 0 1 5.353-2.459h19.718v-2.73c.024-.616-.079-1.231-.303-1.809s-.565-1.107-1.003-1.559a4.878 4.878 0 0 0-1.548-1.072 5.06 5.06 0 0 0-1.857-.421h-20.849a1.574 1.574 0 0 1-1.043-.445 1.45 1.45 0 0 1-.441-1.01c0-.378.156-.742.434-1.01a1.526 1.526 0 0 1 1.05-.424z"/></g><path d="M152.527 476.002h15.059c1.27-.045 2.47-.569 3.339-1.459s1.336-2.074 1.3-3.293v-4.881h-19.718a5.014 5.014 0 0 0-3.388 1.518 4.622 4.622 0 0 0-1.303 3.363 4.467 4.467 0 0 0 .312 1.783c.226.568.567 1.088 1.003 1.53s.959.796 1.538 1.043 1.204.381 1.838.396M167.492 453a8.021 8.021 0 0 1 2.964.666 7.762 7.762 0 0 1 2.47 1.709 7.4 7.4 0 0 1 1.594 2.489c.356.922.517 1.903.476 2.886v10.5c0 4.253-3.342 7.75-7.431 7.75h-15.038c-2.044-.141-3.956-1.019-5.353-2.459-1.396-1.44-2.172-3.334-2.172-5.301s.776-3.861 2.172-5.301a8.242 8.242 0 0 1 5.353-2.459h19.718v-2.73c.024-.616-.079-1.231-.303-1.809s-.565-1.107-1.003-1.559a4.878 4.878 0 0 0-1.548-1.072 5.06 5.06 0 0 0-1.857-.421h-20.849a1.574 1.574 0 0 1-1.043-.445 1.45 1.45 0 0 1-.441-1.01c0-.378.156-.742.434-1.01a1.526 1.526 0 0 1 1.05-.424z" stroke="#d1a647" stroke-width="4"/><path d="M194.632 475.934a1.543 1.543 0 0 1 0 3.066h-5.104c-4.145 0-7.524-3.658-7.524-8.175v-31.332a1.433 1.433 0 0 1 .403-1.066 1.422 1.422 0 0 1 1.057-.426 1.473 1.473 0 0 1 1.429 1.492v12.804h9.647a1.462 1.462 0 0 1 1.46 1.533c-.005.387-.16.757-.433 1.031-.272.275-.64.433-1.027.441h-9.647v15.594a4.835 4.835 0 0 0 1.268 3.493 4.844 4.844 0 0 0 3.367 1.566zM213.735 475.934c.349.044.67.224.904.507.234.282.363.648.363 1.026 0 .379-.129.744-.363 1.027a1.4 1.4 0 0 1-.904.506h-4.742c-3.868 0-6.988-3.659-6.988-8.175v-31.333a1.482 1.482 0 0 1 .355-1.057c.124-.141.274-.252.439-.326a1.22 1.22 0 0 1 .524-.109c.36.013.701.176.952.454s.392.65.394 1.038v12.805h8.971a1.25 1.25 0 0 1 .537.112c.169.077.323.191.449.335.127.144.224.315.286.502s.087.386.074.584a1.527 1.527 0 0 1-.387 1.039 1.35 1.35 0 0 1-.44.32 1.262 1.262 0 0 1-.519.112h-8.971v15.595c-.046 1.288.383 2.543 1.193 3.491.811.948 1.936 1.512 3.131 1.568z" fill="#d1a647" stroke="#d1a647" stroke-width="4"/><path d="M227.507 476.002h15.047a4.928 4.928 0 0 0 1.822-.402c.574-.248 1.091-.604 1.521-1.046s.765-.961.985-1.528a4.425 4.425 0 0 0 .299-1.776v-4.881h-19.664c-1.283.069-2.487.618-3.355 1.53s-1.332 2.115-1.292 3.351a4.465 4.465 0 0 0 .309 1.776c.223.566.56 1.085.992 1.527.431.441.949.796 1.523 1.045a4.98 4.98 0 0 0 1.823.404M242.482 453a7.982 7.982 0 0 1 2.965.658 7.726 7.726 0 0 1 2.473 1.707 7.411 7.411 0 0 1 1.599 2.492c.356.925.518 1.908.477 2.893v10.5c0 4.253-3.333 7.75-7.462 7.75h-15.027a8.214 8.214 0 0 1-5.339-2.459c-1.392-1.44-2.166-3.334-2.166-5.301s.774-3.861 2.166-5.301a8.21 8.21 0 0 1 5.339-2.459h19.663v-2.73a4.62 4.62 0 0 0-1.304-3.353 4.99 4.99 0 0 0-3.374-1.508H221.69a1.506 1.506 0 0 1-1.03-.442 1.39 1.39 0 0 1-.408-1.012 1.311 1.311 0 0 1 .091-.547c.069-.175.174-.334.308-.468.135-.134.296-.241.475-.313s.371-.108.564-.107z" fill="#d1a647"/><path d="M227.507 476.002h15.047a4.928 4.928 0 0 0 1.822-.402c.574-.248 1.091-.604 1.521-1.046s.765-.961.985-1.528a4.425 4.425 0 0 0 .299-1.776v-4.881h-19.664c-1.283.069-2.487.618-3.355 1.53s-1.332 2.115-1.292 3.351a4.465 4.465 0 0 0 .309 1.776c.223.566.56 1.085.992 1.527.431.441.949.796 1.523 1.045a4.98 4.98 0 0 0 1.823.404M242.482 453a7.982 7.982 0 0 1 2.965.658 7.726 7.726 0 0 1 2.473 1.707 7.411 7.411 0 0 1 1.599 2.492c.356.925.518 1.908.477 2.893v10.5c0 4.253-3.333 7.75-7.462 7.75h-15.027a8.214 8.214 0 0 1-5.339-2.459c-1.392-1.44-2.166-3.334-2.166-5.301s.774-3.861 2.166-5.301a8.21 8.21 0 0 1 5.339-2.459h19.663v-2.73a4.62 4.62 0 0 0-1.304-3.353 4.99 4.99 0 0 0-3.374-1.508H221.69a1.506 1.506 0 0 1-1.03-.442 1.39 1.39 0 0 1-.408-1.012 1.311 1.311 0 0 1 .091-.547c.069-.175.174-.334.308-.468.135-.134.296-.241.475-.313s.371-.108.564-.107z" stroke="#d1a647" stroke-width="4"/><path d="M264.368 441.05c-1.261.048-2.452.603-3.314 1.545s-1.325 2.194-1.287 3.483v6.396h9.522a1.404 1.404 0 0 1 1.005.456 1.476 1.476 0 0 1 .383 1.053c.003.387-.139.76-.397 1.043s-.613.454-.991.477h-9.522v21.909a1.44 1.44 0 0 1-.339 1.111 1.368 1.368 0 0 1-2.077 0 1.44 1.44 0 0 1-.339-1.111v-31.334c-.065-2.066.672-4.074 2.05-5.587s3.285-2.409 5.306-2.491h8.245a1.37 1.37 0 0 1 1.004.443 1.448 1.448 0 0 1 .384 1.046c.011.393-.127.775-.386 1.066s-.618.469-1.002.495z" fill="#d1a647" stroke="#d1a647" stroke-width="4"/><path d="M281.505 476.002h15.083a4.923 4.923 0 0 0 1.821-.402c.574-.248 1.09-.604 1.52-1.046s.765-.961.985-1.528a4.407 4.407 0 0 0 .298-1.776v-4.881h-19.655a4.958 4.958 0 0 0-3.366 1.52 4.602 4.602 0 0 0-1.279 3.361 4.41 4.41 0 0 0 .288 1.767c.216.566.546 1.084.971 1.526.425.441.936.798 1.505 1.048a4.89 4.89 0 0 0 1.809.411m15-23.002a7.989 7.989 0 0 1 2.966.655c.933.405 1.774.986 2.473 1.707s1.242 1.569 1.598 2.494c.355.925.516 1.909.473 2.894v10.5c0 4.253-3.31 7.75-7.417 7.75h-15.073c-4.138 0-7.5-3.516-7.5-7.75a7.394 7.394 0 0 1 2.121-5.391 7.973 7.973 0 0 1 5.452-2.379h19.655v-2.73a4.642 4.642 0 0 0-1.325-3.361 5.008 5.008 0 0 0-3.392-1.5h-20.793c-.385-.018-.746-.181-1.007-.453s-.401-.631-.39-1.002a1.344 1.344 0 0 1 .382-1.003c.13-.134.287-.241.461-.315.175-.074.363-.114.554-.116z" fill="#d1a647"/><path d="M281.505 476.002h15.083a4.923 4.923 0 0 0 1.821-.402c.574-.248 1.09-.604 1.52-1.046s.765-.961.985-1.528a4.407 4.407 0 0 0 .298-1.776v-4.881h-19.655a4.958 4.958 0 0 0-3.366 1.52 4.602 4.602 0 0 0-1.279 3.361 4.41 4.41 0 0 0 .288 1.767c.216.566.546 1.084.971 1.526.425.441.936.798 1.505 1.048a4.89 4.89 0 0 0 1.809.411m15-23.002a7.989 7.989 0 0 1 2.966.655c.933.405 1.774.986 2.473 1.707s1.242 1.569 1.598 2.494c.355.925.516 1.909.473 2.894v10.5c0 4.253-3.31 7.75-7.417 7.75h-15.073c-4.138 0-7.5-3.516-7.5-7.75a7.394 7.394 0 0 1 2.121-5.391 7.973 7.973 0 0 1 5.452-2.379h19.655v-2.73a4.642 4.642 0 0 0-1.325-3.361 5.008 5.008 0 0 0-3.392-1.5h-20.793c-.385-.018-.746-.181-1.007-.453s-.401-.631-.39-1.002a1.344 1.344 0 0 1 .382-1.003c.13-.134.287-.241.461-.315.175-.074.363-.114.554-.116z" stroke="#d1a647" stroke-width="4"/><path d="M296.642 54.46h3.7c1.82 0 3-.25 3.64-.8a2.53 2.53 0 0 0 1-2.12 2.65 2.65 0 0 0-.48-1.51 3.098 3.098 0 0 0-1.28-1 10.129 10.129 0 0 0-3.08-.32h-3.49zm-3.08 10.69v-19h6.55a15.2 15.2 0 0 1 4.84.55 4.44 4.44 0 0 1 2.39 1.82 4.9 4.9 0 0 1 .86 2.76 5.075 5.075 0 0 1-1.45 3.68 6.192 6.192 0 0 1-3.95 1.73 5.2 5.2 0 0 1 1.62 1 24.253 24.253 0 0 1 2.8 3.77l2.33 3.71h-3.74l-1.71-3a15.383 15.383 0 0 0-3.19-4.45 4 4 0 0 0-2.47-.62h-1.8v8.05zm7.76-24.5a14.54 14.54 0 0 0-7.26 1.9 13.29 13.29 0 0 0-5.52 5.45 14.89 14.89 0 0 0-.05 14.75 14.21 14.21 0 0 0 5.51 5.44 14.911 14.911 0 0 0 14.71 0 13.756 13.756 0 0 0 5.46-5.47 14.89 14.89 0 0 0 0-14.75 13.453 13.453 0 0 0-5.54-5.42 14.522 14.522 0 0 0-7.23-1.9m0-3c3.022.022 5.986.832 8.6 2.35a16.239 16.239 0 0 1 6.59 6.55 17.332 17.332 0 0 1 2.4 8.85 17.886 17.886 0 0 1-2.33 8.85 16.858 16.858 0 0 1-6.55 6.53 17.811 17.811 0 0 1-17.58 0 16.776 16.776 0 0 1-6.6-6.53 18.404 18.404 0 0 1-2.3-8.85 18.193 18.193 0 0 1 2.37-8.88 16.777 16.777 0 0 1 6.6-6.52 17.792 17.792 0 0 1 8.72-2.28" fill="#d1a647"/></svg>